<svg width="253" height="30" viewBox="0 0 253 30" fill="none" xmlns="http://www.w3.org/2000/svg">
<path d="M10.84 29.56C8.86667 29.56 7.12 29.1467 5.6 28.32C4.10667 27.4667 2.93333 26.28 2.08 24.76C1.25333 23.2133 0.84 21.4 0.84 19.32V18.84C0.84 16.76 1.25333 14.96 2.08 13.44C2.90667 11.8933 4.06667 10.7067 5.56 9.88C7.05333 9.02667 8.78667 8.6 10.76 8.6C12.7067 8.6 14.4 9.04 15.84 9.92C17.28 10.7733 18.4 11.9733 19.2 13.52C20 15.04 20.4 16.8133 20.4 18.84V20.56H5.96C6.01333 21.92 6.52 23.0267 7.48 23.88C8.44 24.7333 9.61333 25.16 11 25.16C12.4133 25.16 13.4533 24.8533 14.12 24.24C14.7867 23.6267 15.2933 22.9467 15.64 22.2L19.76 24.36C19.3867 25.0533 18.84 25.8133 18.12 26.64C17.4267 27.44 16.4933 28.1333 15.32 28.72C14.1467 29.28 12.6533 29.56 10.84 29.56ZM6 16.8H15.28C15.1733 15.6533 14.7067 14.7333 13.88 14.04C13.08 13.3467 12.0267 13 10.72 13C9.36 13 8.28 13.3467 7.48 14.04C6.68 14.7333 6.18667 15.6533 6 16.8ZM24.8059 21.08V16.52H36.6459V21.08H24.8059ZM52.6316 29.56C49.1649 29.56 46.4182 28.6 44.3916 26.68C42.3649 24.7333 41.3516 21.96 41.3516 18.36V11.64C41.3516 8.04 42.3649 5.28 44.3916 3.36C46.4182 1.41333 49.1649 0.439998 52.6316 0.439998C56.0716 0.439998 58.7249 1.38667 60.5916 3.28C62.4849 5.14667 63.4316 7.72 63.4316 11V11.24H58.2316V10.84C58.2316 9.18667 57.7649 7.82667 56.8316 6.76C55.9249 5.69333 54.5249 5.16 52.6316 5.16C50.7649 5.16 49.2982 5.73333 48.2316 6.88C47.1649 8.02666 46.6316 9.58667 46.6316 11.56V18.44C46.6316 20.3867 47.1649 21.9467 48.2316 23.12C49.2982 24.2667 50.7649 24.84 52.6316 24.84C54.5249 24.84 55.9249 24.3067 56.8316 23.24C57.7649 22.1467 58.2316 20.7867 58.2316 19.16V18.44H63.4316V19C63.4316 22.28 62.4849 24.8667 60.5916 26.76C58.7249 28.6267 56.0716 29.56 52.6316 29.56ZM77.3338 29.56C75.3604 29.56 73.5871 29.16 72.0138 28.36C70.4404 27.56 69.2004 26.4 68.2938 24.88C67.3871 23.36 66.9338 21.5333 66.9338 19.4V18.76C66.9338 16.6267 67.3871 14.8 68.2938 13.28C69.2004 11.76 70.4404 10.6 72.0138 9.8C73.5871 9 75.3604 8.6 77.3338 8.6C79.3071 8.6 81.0804 9 82.6538 9.8C84.2271 10.6 85.4671 11.76 86.3738 13.28C87.2804 14.8 87.7338 16.6267 87.7338 18.76V19.4C87.7338 21.5333 87.2804 23.36 86.3738 24.88C85.4671 26.4 84.2271 27.56 82.6538 28.36C81.0804 29.16 79.3071 29.56 77.3338 29.56ZM77.3338 25.08C78.8804 25.08 80.1604 24.5867 81.1738 23.6C82.1871 22.5867 82.6938 21.1467 82.6938 19.28V18.88C82.6938 17.0133 82.1871 15.5867 81.1738 14.6C80.1871 13.5867 78.9071 13.08 77.3338 13.08C75.7871 13.08 74.5071 13.5867 73.4938 14.6C72.4804 15.5867 71.9738 17.0133 71.9738 18.88V19.28C71.9738 21.1467 72.4804 22.5867 73.4938 23.6C74.5071 24.5867 75.7871 25.08 77.3338 25.08ZM92.3859 29V9.16H97.3459V11.32H98.0659C98.4126 10.6533 98.9859 10.08 99.7859 9.6C100.586 9.09333 101.639 8.84 102.946 8.84C104.359 8.84 105.493 9.12 106.346 9.68C107.199 10.2133 107.853 10.92 108.306 11.8H109.026C109.479 10.9467 110.119 10.24 110.946 9.68C111.773 9.12 112.946 8.84 114.466 8.84C115.693 8.84 116.799 9.10667 117.786 9.64C118.799 10.1467 119.599 10.9333 120.186 12C120.799 13.04 121.106 14.36 121.106 15.96V29H116.066V16.32C116.066 15.2267 115.786 14.4133 115.226 13.88C114.666 13.32 113.879 13.04 112.866 13.04C111.719 13.04 110.826 13.4133 110.186 14.16C109.573 14.88 109.266 15.92 109.266 17.28V29H104.226V16.32C104.226 15.2267 103.946 14.4133 103.386 13.88C102.826 13.32 102.039 13.04 101.026 13.04C99.8793 13.04 98.9859 13.4133 98.3459 14.16C97.7326 14.88 97.4259 15.92 97.4259 17.28V29H92.3859ZM126.527 29V9.16H131.487V11.32H132.207C132.553 10.6533 133.127 10.08 133.927 9.6C134.727 9.09333 135.78 8.84 137.087 8.84C138.5 8.84 139.633 9.12 140.487 9.68C141.34 10.2133 141.993 10.92 142.447 11.8H143.167C143.62 10.9467 144.26 10.24 145.087 9.68C145.913 9.12 147.087 8.84 148.607 8.84C149.833 8.84 150.94 9.10667 151.927 9.64C152.94 10.1467 153.74 10.9333 154.327 12C154.94 13.04 155.247 14.36 155.247 15.96V29H150.207V16.32C150.207 15.2267 149.927 14.4133 149.367 13.88C148.807 13.32 148.02 13.04 147.007 13.04C145.86 13.04 144.967 13.4133 144.327 14.16C143.713 14.88 143.407 15.92 143.407 17.28V29H138.367V16.32C138.367 15.2267 138.087 14.4133 137.527 13.88C136.967 13.32 136.18 13.04 135.167 13.04C134.02 13.04 133.127 13.4133 132.487 14.16C131.873 14.88 131.567 15.92 131.567 17.28V29H126.527ZM169.707 29.56C167.734 29.56 165.987 29.1467 164.467 28.32C162.974 27.4667 161.801 26.28 160.947 24.76C160.121 23.2133 159.707 21.4 159.707 19.32V18.84C159.707 16.76 160.121 14.96 160.947 13.44C161.774 11.8933 162.934 10.7067 164.427 9.88C165.921 9.02667 167.654 8.6 169.627 8.6C171.574 8.6 173.267 9.04 174.707 9.92C176.147 10.7733 177.267 11.9733 178.067 13.52C178.867 15.04 179.267 16.8133 179.267 18.84V20.56H164.827C164.881 21.92 165.387 23.0267 166.347 23.88C167.307 24.7333 168.481 25.16 169.867 25.16C171.281 25.16 172.321 24.8533 172.987 24.24C173.654 23.6267 174.161 22.9467 174.507 22.2L178.627 24.36C178.254 25.0533 177.707 25.8133 176.987 26.64C176.294 27.44 175.361 28.1333 174.187 28.72C173.014 29.28 171.521 29.56 169.707 29.56ZM164.867 16.8H174.147C174.041 15.6533 173.574 14.7333 172.747 14.04C171.947 13.3467 170.894 13 169.587 13C168.227 13 167.147 13.3467 166.347 14.04C165.547 14.7333 165.054 15.6533 164.867 16.8ZM183.753 29V9.16H188.713V11.4H189.433C189.726 10.6 190.206 10.0133 190.873 9.64C191.566 9.26667 192.366 9.08 193.273 9.08H195.673V13.56H193.193C191.913 13.56 190.86 13.9067 190.033 14.6C189.206 15.2667 188.793 16.3067 188.793 17.72V29H183.753ZM208.229 29.56C206.309 29.56 204.563 29.16 202.989 28.36C201.443 27.56 200.216 26.4 199.309 24.88C198.403 23.36 197.949 21.52 197.949 19.36V18.8C197.949 16.64 198.403 14.8 199.309 13.28C200.216 11.76 201.443 10.6 202.989 9.8C204.563 9 206.309 8.6 208.229 8.6C210.123 8.6 211.749 8.93333 213.109 9.6C214.469 10.2667 215.563 11.1867 216.389 12.36C217.243 13.5067 217.803 14.8133 218.069 16.28L213.189 17.32C213.083 16.52 212.843 15.8 212.469 15.16C212.096 14.52 211.563 14.0133 210.869 13.64C210.203 13.2667 209.363 13.08 208.349 13.08C207.336 13.08 206.416 13.3067 205.589 13.76C204.789 14.1867 204.149 14.84 203.669 15.72C203.216 16.5733 202.989 17.6267 202.989 18.88V19.28C202.989 20.5333 203.216 21.6 203.669 22.48C204.149 23.3333 204.789 23.9867 205.589 24.44C206.416 24.8667 207.336 25.08 208.349 25.08C209.869 25.08 211.016 24.6933 211.789 23.92C212.589 23.12 213.096 22.08 213.309 20.8L218.189 21.96C217.843 23.3733 217.243 24.6667 216.389 25.84C215.563 26.9867 214.469 27.8933 213.109 28.56C211.749 29.2267 210.123 29.56 208.229 29.56ZM231.387 29.56C229.414 29.56 227.667 29.1467 226.147 28.32C224.654 27.4667 223.48 26.28 222.627 24.76C221.8 23.2133 221.387 21.4 221.387 19.32V18.84C221.387 16.76 221.8 14.96 222.627 13.44C223.454 11.8933 224.614 10.7067 226.107 9.88C227.6 9.02667 229.334 8.6 231.307 8.6C233.254 8.6 234.947 9.04 236.387 9.92C237.827 10.7733 238.947 11.9733 239.747 13.52C240.547 15.04 240.947 16.8133 240.947 18.84V20.56H226.507C226.56 21.92 227.067 23.0267 228.027 23.88C228.987 24.7333 230.16 25.16 231.547 25.16C232.96 25.16 234 24.8533 234.667 24.24C235.334 23.6267 235.84 22.9467 236.187 22.2L240.307 24.36C239.934 25.0533 239.387 25.8133 238.667 26.64C237.974 27.44 237.04 28.1333 235.867 28.72C234.694 29.28 233.2 29.56 231.387 29.56ZM226.547 16.8H235.827C235.72 15.6533 235.254 14.7333 234.427 14.04C233.627 13.3467 232.574 13 231.267 13C229.907 13 228.827 13.3467 228.027 14.04C227.227 14.7333 226.734 15.6533 226.547 16.8Z" fill="black"/>
<path d="M248.593 29.56C247.526 29.56 246.619 29.2133 245.873 28.52C245.153 27.8 244.793 26.88 244.793 25.76C244.793 24.64 245.153 23.7333 245.873 23.04C246.619 22.32 247.526 21.96 248.593 21.96C249.686 21.96 250.593 22.32 251.313 23.04C252.033 23.7333 252.393 24.64 252.393 25.76C252.393 26.88 252.033 27.8 251.313 28.52C250.593 29.2133 249.686 29.56 248.593 29.56Z" fill="#EBAD0F"/>
</svg>
